<?xml version="1.0" encoding="utf-8"?>
<!-- Generator: Adobe Illustrator 16.0.0, SVG Export Plug-In . SVG Version: 6.00 Build 0)  -->
<!DOCTYPE svg PUBLIC "-//W3C//DTD SVG 1.1//EN" "http://www.w3.org/Graphics/SVG/1.1/DTD/svg11.dtd">
<svg version="1.1" id="Layer_1" xmlns="http://www.w3.org/2000/svg" xmlns:xlink="http://www.w3.org/1999/xlink" x="0px" y="0px"
	 width="792px" height="612px" viewBox="0 0 792 612" enable-background="new 0 0 792 612" xml:space="preserve">
<g>
	<path fill-rule="evenodd" clip-rule="evenodd" fill="#DCE2E8" d="M68.591,48.756c-36.334,24.81-54.859,70.696-42.823,115.597
		c15.227,56.848,73.66,90.585,130.506,75.349c46.452-12.443,77.465-53.725,78.952-99.423c-6.43,37.501-33.959,69.721-73.124,80.212
		c-53.654,14.379-108.793-17.458-123.173-71.111C28.834,111.695,41.539,73.271,68.591,48.756L68.591,48.756z"/>
	<path fill-rule="evenodd" clip-rule="evenodd" fill="#70C9F0" d="M187.685,195.776c30.656-20.938,46.289-59.65,36.135-97.544
		c-12.854-47.971-62.156-76.434-110.126-63.586C74.497,45.152,48.324,79.99,47.07,118.549c5.424-31.646,28.656-58.832,61.705-67.686
		c45.271-12.13,91.806,14.736,103.937,60.007C221.233,142.671,210.513,175.093,187.685,195.776L187.685,195.776z"/>
	<g>
		<path fill-rule="evenodd" clip-rule="evenodd" fill="#DCE2E8" d="M190.634,157.823c-0.984-2.554-5.139-4.139-9.86-3.539
			c-1.181,0-2.57,0.387-3.755,0.791c-5.725,1.763-35.314,11.836-35.505,12.029l-0.598,0.193l0.387,0.389
			c3.361,2.767,4.949,5.724,4.156,8.295c-0.984,3.539-5.725,5.726-13.805,6.306c-6.906,0.598-15.785,0-26.055-1.972
			c0.988,0,2.379,0,3.562,0.194c7.483-0.194,14.603-0.194,19.919-0.39c8.49-0.793,12.625-2.571,13.227-5.917
			c0.19-1.972-1.004-3.75-3.946-5.127c-3.167-1.778-9.863-2.568-16.382-3.75c-4.346-0.598-8.488-1.178-11.445-1.973
			c-10.25-2.57-20.713-5.337-32.743-4.35c-1.973,0.211-3.946,0.404-5.722,0.793c-9.459,1.584-18.528,3.75-28.201,6.517l-1.195,0.194
			l14.212,20.516c2.555-0.598,5.125-1.178,7.698-1.37c3.346-0.214,6.5-0.214,9.653,0.192c3.961,0.775,13.615,2.747,23.089,4.527
			c9.668,2.165,18.934,3.943,22.474,4.349c2.181,0.386,3.966,0.386,5.935,0.193c4.738-0.404,9.668-2.957,14.39-5.317
			c1.392-1.005,2.979-1.585,4.153-2.38l42.218-22.877C191.219,161.574,191.219,159.215,190.634,157.823L190.634,157.823z"/>
	</g>
	<g>
		<g>
			
				<line fill="none" stroke="#2AAAE2" stroke-width="8" stroke-linecap="round" stroke-linejoin="round" stroke-miterlimit="10" x1="97" y1="154" x2="97" y2="103"/>
			
				<line fill="none" stroke="#2AAAE2" stroke-width="8" stroke-linecap="round" stroke-linejoin="round" stroke-miterlimit="10" x1="162" y1="103" x2="162" y2="154"/>
			
				<polyline fill="none" stroke="#2AAAE2" stroke-width="8" stroke-linecap="round" stroke-linejoin="round" stroke-miterlimit="10" points="
				162,103 174.146,103 156,91.137 156,76 149,76 149,86.074 128.97,72.935 84.266,103 97,103 			"/>
		</g>
	</g>
	<path fill="#274470" d="M147.833,98.581c-5.436-1.456-11.021,1.771-12.479,7.205c-0.441,1.649-0.453,3.315-0.099,4.874
		c-3.153-1.67-6.601-2.617-10.347-2.847c1.346,1.882,2.009,4.235,1.744,6.642c3.994,0.674,7.49,2.524,10.499,5.547
		c3.868,3.885,5.805,8.567,5.805,14.03v11.563h-18.804l3.953,6.415h21.264v-17.978c0-5.833-1.662-10.987-4.984-15.451
		c4.809,0.39,9.357-2.694,10.652-7.521C156.494,105.626,153.269,100.037,147.833,98.581z"/>
	<path fill="#0674A5" d="M123.324,116.301c0.116-0.284,0.216-0.582,0.298-0.884c1.101-4.11-1.339-8.333-5.447-9.435
		c-4.11-1.102-8.333,1.338-9.434,5.446c-0.854,3.188,0.421,6.442,2.953,8.259c-0.71,0.531-1.394,1.127-2.054,1.786
		c-3.471,3.472-5.203,7.653-5.203,12.561s1.732,9.096,5.203,12.566l4.521-4.52c-2.207-2.209-3.31-4.891-3.31-8.047
		c0-3.115,1.103-5.788,3.31-8.013c2.208-2.224,4.889-3.336,8.037-3.336c3.158,0,5.841,1.112,8.047,3.336
		c2.207,2.225,3.312,4.897,3.312,8.013v3.048h-15.538l3.953,6.416h17.998v-9.464c0-4.907-1.74-9.089-5.203-12.561
		C131.566,118.271,127.751,116.549,123.324,116.301z"/>
</g>
</svg>
